<?xml version="1.0" encoding="UTF-8" standalone="no"?>
<!-- Created with Inkscape (http://www.inkscape.org/) -->

<svg
   xmlns:dc="http://purl.org/dc/elements/1.1/"
   xmlns:cc="http://creativecommons.org/ns#"
   xmlns:rdf="http://www.w3.org/1999/02/22-rdf-syntax-ns#"
   xmlns:svg="http://www.w3.org/2000/svg"
   xmlns="http://www.w3.org/2000/svg"
   xmlns:sodipodi="http://sodipodi.sourceforge.net/DTD/sodipodi-0.dtd"
   xmlns:inkscape="http://www.inkscape.org/namespaces/inkscape"
   width="304.79999mm"
   height="304.79999mm"
   viewBox="0 0 304.79999 304.79999"
   version="1.1"
   id="svg8"
   inkscape:version="0.92.5 (2060ec1f9f, 2020-04-08)"
   sodipodi:docname="CutFIle2.svg">
  <defs
     id="defs2" />
  <sodipodi:namedview
     id="base"
     pagecolor="#ffffff"
     bordercolor="#666666"
     borderopacity="1.0"
     inkscape:pageopacity="0.0"
     inkscape:pageshadow="2"
     inkscape:zoom="0.72743058"
     inkscape:cx="800.01707"
     inkscape:cy="567.78828"
     inkscape:document-units="mm"
     inkscape:current-layer="layer1"
     showgrid="false"
     inkscape:window-width="1920"
     inkscape:window-height="1016"
     inkscape:window-x="0"
     inkscape:window-y="27"
     inkscape:window-maximized="1" />
  <metadata
     id="metadata5">
    <rdf:RDF>
      <cc:Work
         rdf:about="">
        <dc:format>image/svg+xml</dc:format>
        <dc:type
           rdf:resource="http://purl.org/dc/dcmitype/StillImage" />
        <dc:title></dc:title>
      </cc:Work>
    </rdf:RDF>
  </metadata>
  <g
     inkscape:label="Layer 1"
     inkscape:groupmode="layer"
     id="layer1"
     transform="translate(0,7.8)">
    <path
       style="fill:none;fill-opacity:1;stroke:#000000;stroke-width:0.17779854;stroke-opacity:1"
       d="M 10.384748,-1.0546754 V 3.700073 h 9.754443 v -4.7547484 z"
       id="path1395"
       inkscape:connector-curvature="0" />
    <path
       style="fill:none;fill-opacity:1;stroke:#000000;stroke-width:0.17779854;stroke-opacity:1"
       d="m 15.416999,72.046288 a 2.1995124,2.1995127 0 0 0 -0.155546,0.0052 2.1995124,2.1995127 0 0 0 -0.218075,0.02687 2.1995124,2.1995127 0 0 0 -0.214457,0.04806 2.1995124,2.1995127 0 0 0 -0.208773,0.06925 2.1995124,2.1995127 0 0 0 -0.201021,0.08992 2.1995124,2.1995127 0 0 0 -0.190686,0.109037 2.1995124,2.1995127 0 0 0 -0.1788,0.128156 2.1995124,2.1995127 0 0 0 -0.164848,0.145212 2.1995124,2.1995127 0 0 0 -0.149862,0.160713 2.1995124,2.1995127 0 0 0 -0.133325,0.175183 2.1995124,2.1995127 0 0 0 -0.114722,0.187068 2.1995124,2.1995127 0 0 0 -0.0956,0.198438 2.1995124,2.1995127 0 0 0 -0.07545,0.20619 2.1995124,2.1995127 0 0 0 -0.05426,0.212907 2.1995124,2.1995127 0 0 0 -0.03307,0.217557 2.1995124,2.1995127 0 0 0 -0.01085,0.219625 2.1995124,2.1995127 0 0 0 0.0052,0.155546 2.1995124,2.1995127 0 0 0 0.02687,0.218075 2.1995124,2.1995127 0 0 0 0.04806,0.214974 2.1995124,2.1995127 0 0 0 0.06925,0.208256 2.1995124,2.1995127 0 0 0 0.08992,0.20102 2.1995124,2.1995127 0 0 0 0.109554,0.190687 2.1995124,2.1995127 0 0 0 0.127641,0.178801 2.1995124,2.1995127 0 0 0 0.145211,0.164848 2.1995124,2.1995127 0 0 0 0.160713,0.14986 2.1995124,2.1995127 0 0 0 0.175183,0.133326 2.1995124,2.1995127 0 0 0 0.187586,0.114721 2.1995124,2.1995127 0 0 0 0.19792,0.0956 2.1995124,2.1995127 0 0 0 0.206189,0.07545 2.1995124,2.1995127 0 0 0 0.213424,0.05478 2.1995124,2.1995127 0 0 0 0.217041,0.03256 2.1995124,2.1995127 0 0 0 0.219625,0.01085 2.1995124,2.1995127 0 0 0 0.155546,-0.0052 2.1995124,2.1995127 0 0 0 0.218591,-0.02687 2.1995124,2.1995127 0 0 0 0.214458,-0.04806 2.1995124,2.1995127 0 0 0 0.208255,-0.06925 2.1995124,2.1995127 0 0 0 0.201022,-0.08992 2.1995124,2.1995127 0 0 0 0.190686,-0.109037 2.1995124,2.1995127 0 0 0 0.1788,-0.128157 2.1995124,2.1995127 0 0 0 0.165365,-0.145211 2.1995124,2.1995127 0 0 0 0.149861,-0.160713 2.1995124,2.1995127 0 0 0 0.132809,-0.175183 2.1995124,2.1995127 0 0 0 0.114722,-0.187069 2.1995124,2.1995127 0 0 0 0.0956,-0.197921 2.1995124,2.1995127 0 0 0 0.07545,-0.206706 2.1995124,2.1995127 0 0 0 0.05478,-0.212908 2.1995124,2.1995127 0 0 0 0.03256,-0.217556 2.1995124,2.1995127 0 0 0 0.01085,-0.219625 2.1995124,2.1995127 0 0 0 -0.0052,-0.155546 2.1995124,2.1995127 0 0 0 -0.02636,-0.218075 2.1995124,2.1995127 0 0 0 -0.04858,-0.214974 2.1995124,2.1995127 0 0 0 -0.06925,-0.208256 2.1995124,2.1995127 0 0 0 -0.08992,-0.20102 2.1995124,2.1995127 0 0 0 -0.109037,-0.190688 2.1995124,2.1995127 0 0 0 -0.128158,-0.1788 2.1995124,2.1995127 0 0 0 -0.145211,-0.164849 2.1995124,2.1995127 0 0 0 -0.160713,-0.14986 2.1995124,2.1995127 0 0 0 -0.175183,-0.133326 2.1995124,2.1995127 0 0 0 -0.187069,-0.11472 2.1995124,2.1995127 0 0 0 -0.197921,-0.0956 2.1995124,2.1995127 0 0 0 -0.206705,-0.07545 2.1995124,2.1995127 0 0 0 -0.212908,-0.05426 2.1995124,2.1995127 0 0 0 -0.217557,-0.03307 2.1995124,2.1995127 0 0 0 -0.219625,-0.01085 z"
       id="path1398"
       inkscape:connector-curvature="0" />
    <path
       style="fill:none;fill-opacity:1;stroke:#000000;stroke-width:0.17779854;stroke-opacity:1"
       d="M 2.8063993,-4.9154217 V 149.90665 H 28.028115 v -9.38289 H 15.497614 V 135.9783 H 28.028115 V -4.9154217 Z m 7.5783487,3.8607463 h 9.754443 V 3.700073 h -9.754443 z m 5.032251,73.1009634 a 2.1995124,2.1995127 0 0 1 0.219625,0.01085 2.1995124,2.1995127 0 0 1 0.217557,0.03307 2.1995124,2.1995127 0 0 1 0.212908,0.05426 2.1995124,2.1995127 0 0 1 0.206705,0.07545 2.1995124,2.1995127 0 0 1 0.197921,0.0956 2.1995124,2.1995127 0 0 1 0.187069,0.11472 2.1995124,2.1995127 0 0 1 0.175183,0.133326 2.1995124,2.1995127 0 0 1 0.160713,0.14986 2.1995124,2.1995127 0 0 1 0.145211,0.164849 2.1995124,2.1995127 0 0 1 0.128158,0.1788 2.1995124,2.1995127 0 0 1 0.109037,0.190688 2.1995124,2.1995127 0 0 1 0.08992,0.20102 2.1995124,2.1995127 0 0 1 0.06925,0.208256 2.1995124,2.1995127 0 0 1 0.04858,0.214974 2.1995124,2.1995127 0 0 1 0.02636,0.218075 2.1995124,2.1995127 0 0 1 0.0052,0.155546 2.1995124,2.1995127 0 0 1 -0.01085,0.219625 2.1995124,2.1995127 0 0 1 -0.03256,0.217556 2.1995124,2.1995127 0 0 1 -0.05478,0.212908 2.1995124,2.1995127 0 0 1 -0.07545,0.206706 2.1995124,2.1995127 0 0 1 -0.0956,0.197921 2.1995124,2.1995127 0 0 1 -0.114722,0.187069 2.1995124,2.1995127 0 0 1 -0.132809,0.175183 2.1995124,2.1995127 0 0 1 -0.149861,0.160713 2.1995124,2.1995127 0 0 1 -0.165365,0.145211 2.1995124,2.1995127 0 0 1 -0.1788,0.128157 2.1995124,2.1995127 0 0 1 -0.190686,0.109037 2.1995124,2.1995127 0 0 1 -0.201022,0.08992 2.1995124,2.1995127 0 0 1 -0.208255,0.06925 2.1995124,2.1995127 0 0 1 -0.214458,0.04806 2.1995124,2.1995127 0 0 1 -0.218591,0.02687 2.1995124,2.1995127 0 0 1 -0.155546,0.0052 2.1995124,2.1995127 0 0 1 -0.219625,-0.01085 2.1995124,2.1995127 0 0 1 -0.217041,-0.03256 2.1995124,2.1995127 0 0 1 -0.213424,-0.05478 2.1995124,2.1995127 0 0 1 -0.206189,-0.07545 2.1995124,2.1995127 0 0 1 -0.19792,-0.0956 2.1995124,2.1995127 0 0 1 -0.187586,-0.114721 2.1995124,2.1995127 0 0 1 -0.175183,-0.133326 2.1995124,2.1995127 0 0 1 -0.160713,-0.14986 2.1995124,2.1995127 0 0 1 -0.145211,-0.164848 2.1995124,2.1995127 0 0 1 -0.127641,-0.178801 2.1995124,2.1995127 0 0 1 -0.109554,-0.190687 2.1995124,2.1995127 0 0 1 -0.08992,-0.20102 2.1995124,2.1995127 0 0 1 -0.06925,-0.208256 2.1995124,2.1995127 0 0 1 -0.04806,-0.214974 2.1995124,2.1995127 0 0 1 -0.02687,-0.218075 2.1995124,2.1995127 0 0 1 -0.0052,-0.155546 2.1995124,2.1995127 0 0 1 0.01085,-0.219625 2.1995124,2.1995127 0 0 1 0.03307,-0.217557 2.1995124,2.1995127 0 0 1 0.05426,-0.212907 2.1995124,2.1995127 0 0 1 0.07545,-0.20619 2.1995124,2.1995127 0 0 1 0.0956,-0.198438 2.1995124,2.1995127 0 0 1 0.114722,-0.187068 2.1995124,2.1995127 0 0 1 0.133325,-0.175183 2.1995124,2.1995127 0 0 1 0.149862,-0.160713 2.1995124,2.1995127 0 0 1 0.164848,-0.145212 2.1995124,2.1995127 0 0 1 0.1788,-0.128156 2.1995124,2.1995127 0 0 1 0.190686,-0.109037 2.1995124,2.1995127 0 0 1 0.201021,-0.08992 2.1995124,2.1995127 0 0 1 0.208773,-0.06925 2.1995124,2.1995127 0 0 1 0.214457,-0.04806 2.1995124,2.1995127 0 0 1 0.218075,-0.02687 2.1995124,2.1995127 0 0 1 0.155546,-0.0052 z"
       id="rect1366"
       inkscape:connector-curvature="0" />
    <path
       style="fill:none;fill-opacity:1;stroke:#000000;stroke-width:1.26385725;stroke-opacity:1"
       d="M 461.98633 25.859375 A 5.5110637 5.5110633 0 0 0 461.59766 25.873047 A 5.5110637 5.5110633 0 0 0 461.05078 25.939453 A 5.5110637 5.5110633 0 0 0 460.51172 26.060547 A 5.5110637 5.5110633 0 0 0 459.99023 26.234375 A 5.5110637 5.5110633 0 0 0 459.48633 26.458984 A 5.5110637 5.5110633 0 0 0 459.00977 26.732422 A 5.5110637 5.5110633 0 0 0 458.56055 27.052734 A 5.5110637 5.5110633 0 0 0 458.14648 27.416016 A 5.5110637 5.5110633 0 0 0 457.77148 27.820312 A 5.5110637 5.5110633 0 0 0 457.4375 28.257812 A 5.5110637 5.5110633 0 0 0 457.15039 28.728516 A 5.5110637 5.5110633 0 0 0 456.91016 29.224609 A 5.5110637 5.5110633 0 0 0 456.72266 29.742188 A 5.5110637 5.5110633 0 0 0 456.58594 30.275391 A 5.5110637 5.5110633 0 0 0 456.50391 30.820312 A 5.5110637 5.5110633 0 0 0 456.47656 31.369141 A 5.5110637 5.5110633 0 0 0 456.49023 31.759766 A 5.5110637 5.5110633 0 0 0 456.55664 32.306641 A 5.5110637 5.5110633 0 0 0 456.67578 32.84375 A 5.5110637 5.5110633 0 0 0 456.84961 33.367188 A 5.5110637 5.5110633 0 0 0 457.07617 33.869141 A 5.5110637 5.5110633 0 0 0 457.34961 34.347656 A 5.5110637 5.5110633 0 0 0 457.66992 34.794922 A 5.5110637 5.5110633 0 0 0 458.0332 35.208984 A 5.5110637 5.5110633 0 0 0 458.43555 35.585938 A 5.5110637 5.5110633 0 0 0 458.875 35.917969 A 5.5110637 5.5110633 0 0 0 459.34375 36.207031 A 5.5110637 5.5110633 0 0 0 459.83984 36.445312 A 5.5110637 5.5110633 0 0 0 460.35742 36.634766 A 5.5110637 5.5110633 0 0 0 460.89258 36.771484 A 5.5110637 5.5110633 0 0 0 461.4375 36.853516 A 5.5110637 5.5110633 0 0 0 461.98633 36.880859 A 5.5110637 5.5110633 0 0 0 462.37695 36.867188 A 5.5110637 5.5110633 0 0 0 462.92383 36.800781 A 5.5110637 5.5110633 0 0 0 463.46094 36.679688 A 5.5110637 5.5110633 0 0 0 463.98438 36.505859 A 5.5110637 5.5110633 0 0 0 464.48633 36.28125 A 5.5110637 5.5110633 0 0 0 464.96484 36.007812 A 5.5110637 5.5110633 0 0 0 465.41211 35.6875 A 5.5110637 5.5110633 0 0 0 465.82617 35.324219 A 5.5110637 5.5110633 0 0 0 466.20117 34.919922 A 5.5110637 5.5110633 0 0 0 466.53516 34.482422 A 5.5110637 5.5110633 0 0 0 466.82227 34.011719 A 5.5110637 5.5110633 0 0 0 467.0625 33.515625 A 5.5110637 5.5110633 0 0 0 467.25195 32.998047 A 5.5110637 5.5110633 0 0 0 467.38867 32.464844 A 5.5110637 5.5110633 0 0 0 467.4707 31.919922 A 5.5110637 5.5110633 0 0 0 467.49805 31.369141 A 5.5110637 5.5110633 0 0 0 467.48438 30.980469 A 5.5110637 5.5110633 0 0 0 467.41797 30.433594 A 5.5110637 5.5110633 0 0 0 467.29688 29.896484 A 5.5110637 5.5110633 0 0 0 467.12305 29.373047 A 5.5110637 5.5110633 0 0 0 466.89844 28.871094 A 5.5110637 5.5110633 0 0 0 466.625 28.392578 A 5.5110637 5.5110633 0 0 0 466.30469 27.943359 A 5.5110637 5.5110633 0 0 0 465.93945 27.53125 A 5.5110637 5.5110633 0 0 0 465.53711 27.154297 A 5.5110637 5.5110633 0 0 0 465.09766 26.822266 A 5.5110637 5.5110633 0 0 0 464.62891 26.533203 A 5.5110637 5.5110633 0 0 0 464.13281 26.294922 A 5.5110637 5.5110633 0 0 0 463.61523 26.105469 A 5.5110637 5.5110633 0 0 0 463.08203 25.96875 A 5.5110637 5.5110633 0 0 0 462.53711 25.886719 A 5.5110637 5.5110633 0 0 0 461.98633 25.859375 z "
       id="path1536"
       transform="matrix(0.26458333,0,0,0.26458333,0,-7.8)" />
    <path
       style="fill:none;fill-opacity:1;stroke:#000000;stroke-width:1.26385725;stroke-opacity:1"
       d="M 461.98633 422.70898 A 5.5110637 5.5110633 0 0 0 461.59766 422.72266 A 5.5110637 5.5110633 0 0 0 461.05078 422.78906 A 5.5110637 5.5110633 0 0 0 460.51172 422.91016 A 5.5110637 5.5110633 0 0 0 459.99023 423.08398 A 5.5110637 5.5110633 0 0 0 459.48633 423.30859 A 5.5110637 5.5110633 0 0 0 459.00977 423.58203 A 5.5110637 5.5110633 0 0 0 458.56055 423.9043 A 5.5110637 5.5110633 0 0 0 458.14648 424.26758 A 5.5110637 5.5110633 0 0 0 457.77148 424.66992 A 5.5110637 5.5110633 0 0 0 457.4375 425.10938 A 5.5110637 5.5110633 0 0 0 457.15039 425.57812 A 5.5110637 5.5110633 0 0 0 456.91016 426.07422 A 5.5110637 5.5110633 0 0 0 456.72266 426.5918 A 5.5110637 5.5110633 0 0 0 456.58594 427.125 A 5.5110637 5.5110633 0 0 0 456.50391 427.66992 A 5.5110637 5.5110633 0 0 0 456.47656 428.2207 A 5.5110637 5.5110633 0 0 0 456.49023 428.60938 A 5.5110637 5.5110633 0 0 0 456.55664 429.15625 A 5.5110637 5.5110633 0 0 0 456.67578 429.69531 A 5.5110637 5.5110633 0 0 0 456.84961 430.2168 A 5.5110637 5.5110633 0 0 0 457.07617 430.7207 A 5.5110637 5.5110633 0 0 0 457.34961 431.19727 A 5.5110637 5.5110633 0 0 0 457.66992 431.64648 A 5.5110637 5.5110633 0 0 0 458.0332 432.06055 A 5.5110637 5.5110633 0 0 0 458.43555 432.43555 A 5.5110637 5.5110633 0 0 0 458.875 432.76953 A 5.5110637 5.5110633 0 0 0 459.34375 433.05664 A 5.5110637 5.5110633 0 0 0 459.83984 433.29688 A 5.5110637 5.5110633 0 0 0 460.35742 433.48438 A 5.5110637 5.5110633 0 0 0 460.89258 433.62109 A 5.5110637 5.5110633 0 0 0 461.4375 433.70312 A 5.5110637 5.5110633 0 0 0 461.98633 433.73242 A 5.5110637 5.5110633 0 0 0 462.37695 433.7168 A 5.5110637 5.5110633 0 0 0 462.92383 433.65039 A 5.5110637 5.5110633 0 0 0 463.46094 433.53125 A 5.5110637 5.5110633 0 0 0 463.98438 433.35742 A 5.5110637 5.5110633 0 0 0 464.48633 433.13281 A 5.5110637 5.5110633 0 0 0 464.96484 432.85742 A 5.5110637 5.5110633 0 0 0 465.41211 432.53711 A 5.5110637 5.5110633 0 0 0 465.82617 432.17383 A 5.5110637 5.5110633 0 0 0 466.20117 431.77148 A 5.5110637 5.5110633 0 0 0 466.53516 431.33203 A 5.5110637 5.5110633 0 0 0 466.82227 430.86328 A 5.5110637 5.5110633 0 0 0 467.0625 430.36719 A 5.5110637 5.5110633 0 0 0 467.25195 429.84961 A 5.5110637 5.5110633 0 0 0 467.38867 429.31445 A 5.5110637 5.5110633 0 0 0 467.4707 428.77148 A 5.5110637 5.5110633 0 0 0 467.49805 428.2207 A 5.5110637 5.5110633 0 0 0 467.48438 427.83008 A 5.5110637 5.5110633 0 0 0 467.41797 427.2832 A 5.5110637 5.5110633 0 0 0 467.29688 426.74609 A 5.5110637 5.5110633 0 0 0 467.12305 426.22266 A 5.5110637 5.5110633 0 0 0 466.89844 425.7207 A 5.5110637 5.5110633 0 0 0 466.625 425.24219 A 5.5110637 5.5110633 0 0 0 466.30469 424.79492 A 5.5110637 5.5110633 0 0 0 465.93945 424.38086 A 5.5110637 5.5110633 0 0 0 465.53711 424.00586 A 5.5110637 5.5110633 0 0 0 465.09766 423.67188 A 5.5110637 5.5110633 0 0 0 464.62891 423.38477 A 5.5110637 5.5110633 0 0 0 464.13281 423.14453 A 5.5110637 5.5110633 0 0 0 463.61523 422.95508 A 5.5110637 5.5110633 0 0 0 463.08203 422.81836 A 5.5110637 5.5110633 0 0 0 462.53711 422.73633 A 5.5110637 5.5110633 0 0 0 461.98633 422.70898 z "
       id="path1539"
       transform="matrix(0.26458333,0,0,0.26458333,0,-7.8)" />
    <path
       style="fill:none;fill-opacity:1;stroke:#000000;stroke-width:1.26385725;stroke-opacity:1"
       d="M 461.98633 6.7304688 A 226.13972 226.13972 0 0 0 235.8457 232.87109 A 226.13972 226.13972 0 0 0 461.98633 459.00977 A 226.13972 226.13972 0 0 0 688.125 232.87109 A 226.13972 226.13972 0 0 0 461.98633 6.7304688 z M 461.98633 25.859375 A 5.5110636 5.5110632 0 0 1 462.53711 25.886719 A 5.5110636 5.5110632 0 0 1 463.08203 25.96875 A 5.5110636 5.5110632 0 0 1 463.61523 26.105469 A 5.5110636 5.5110632 0 0 1 464.13281 26.294922 A 5.5110636 5.5110632 0 0 1 464.62891 26.533203 A 5.5110636 5.5110632 0 0 1 465.09766 26.822266 A 5.5110636 5.5110632 0 0 1 465.53711 27.154297 A 5.5110636 5.5110632 0 0 1 465.93945 27.53125 A 5.5110636 5.5110632 0 0 1 466.30469 27.943359 A 5.5110636 5.5110632 0 0 1 466.625 28.392578 A 5.5110636 5.5110632 0 0 1 466.89844 28.871094 A 5.5110636 5.5110632 0 0 1 467.12305 29.373047 A 5.5110636 5.5110632 0 0 1 467.29688 29.896484 A 5.5110636 5.5110632 0 0 1 467.41797 30.433594 A 5.5110636 5.5110632 0 0 1 467.48438 30.980469 A 5.5110636 5.5110632 0 0 1 467.49805 31.369141 A 5.5110636 5.5110632 0 0 1 467.4707 31.919922 A 5.5110636 5.5110632 0 0 1 467.38867 32.464844 A 5.5110636 5.5110632 0 0 1 467.25195 32.998047 A 5.5110636 5.5110632 0 0 1 467.0625 33.515625 A 5.5110636 5.5110632 0 0 1 466.82227 34.011719 A 5.5110636 5.5110632 0 0 1 466.53516 34.482422 A 5.5110636 5.5110632 0 0 1 466.20117 34.919922 A 5.5110636 5.5110632 0 0 1 465.82617 35.324219 A 5.5110636 5.5110632 0 0 1 465.41211 35.6875 A 5.5110636 5.5110632 0 0 1 464.96484 36.007812 A 5.5110636 5.5110632 0 0 1 464.48633 36.28125 A 5.5110636 5.5110632 0 0 1 463.98438 36.505859 A 5.5110636 5.5110632 0 0 1 463.46094 36.679688 A 5.5110636 5.5110632 0 0 1 462.92383 36.800781 A 5.5110636 5.5110632 0 0 1 462.37695 36.867188 A 5.5110636 5.5110632 0 0 1 461.98633 36.880859 A 5.5110636 5.5110632 0 0 1 461.4375 36.853516 A 5.5110636 5.5110632 0 0 1 460.89258 36.771484 A 5.5110636 5.5110632 0 0 1 460.35742 36.634766 A 5.5110636 5.5110632 0 0 1 459.83984 36.445312 A 5.5110636 5.5110632 0 0 1 459.34375 36.207031 A 5.5110636 5.5110632 0 0 1 458.875 35.917969 A 5.5110636 5.5110632 0 0 1 458.43555 35.585938 A 5.5110636 5.5110632 0 0 1 458.0332 35.208984 A 5.5110636 5.5110632 0 0 1 457.66992 34.794922 A 5.5110636 5.5110632 0 0 1 457.34961 34.347656 A 5.5110636 5.5110632 0 0 1 457.07617 33.869141 A 5.5110636 5.5110632 0 0 1 456.84961 33.367188 A 5.5110636 5.5110632 0 0 1 456.67578 32.84375 A 5.5110636 5.5110632 0 0 1 456.55664 32.306641 A 5.5110636 5.5110632 0 0 1 456.49023 31.759766 A 5.5110636 5.5110632 0 0 1 456.47656 31.369141 A 5.5110636 5.5110632 0 0 1 456.50391 30.820312 A 5.5110636 5.5110632 0 0 1 456.58594 30.275391 A 5.5110636 5.5110632 0 0 1 456.72266 29.742188 A 5.5110636 5.5110632 0 0 1 456.91016 29.224609 A 5.5110636 5.5110632 0 0 1 457.15039 28.728516 A 5.5110636 5.5110632 0 0 1 457.4375 28.257812 A 5.5110636 5.5110632 0 0 1 457.77148 27.820312 A 5.5110636 5.5110632 0 0 1 458.14648 27.416016 A 5.5110636 5.5110632 0 0 1 458.56055 27.052734 A 5.5110636 5.5110632 0 0 1 459.00977 26.732422 A 5.5110636 5.5110632 0 0 1 459.48633 26.458984 A 5.5110636 5.5110632 0 0 1 459.99023 26.234375 A 5.5110636 5.5110632 0 0 1 460.51172 26.060547 A 5.5110636 5.5110632 0 0 1 461.05078 25.939453 A 5.5110636 5.5110632 0 0 1 461.59766 25.873047 A 5.5110636 5.5110632 0 0 1 461.98633 25.859375 z M 461.98242 229.29297 L 461.98633 229.29688 A 3.571207 3.5712071 0 0 1 462.3418 229.31641 A 3.571207 3.5712071 0 0 1 462.69531 229.36914 A 3.571207 3.5712071 0 0 1 463.04102 229.45703 A 3.571207 3.5712071 0 0 1 463.37695 229.58008 A 3.571207 3.5712071 0 0 1 463.69727 229.73438 A 3.571207 3.5712071 0 0 1 464.00195 229.92188 A 3.571207 3.5712071 0 0 1 464.28711 230.13672 A 3.571207 3.5712071 0 0 1 464.54688 230.38086 A 3.571207 3.5712071 0 0 1 464.7832 230.64844 A 3.571207 3.5712071 0 0 1 464.99023 230.93945 A 3.571207 3.5712071 0 0 1 465.16797 231.25 A 3.571207 3.5712071 0 0 1 465.31445 231.57422 A 3.571207 3.5712071 0 0 1 465.42773 231.91406 A 3.571207 3.5712071 0 0 1 465.50586 232.26172 A 3.571207 3.5712071 0 0 1 465.54883 232.61719 A 3.571207 3.5712071 0 0 1 465.55664 232.86914 A 3.571207 3.5712071 0 0 1 465.53906 233.22461 A 3.571207 3.5712071 0 0 1 465.48633 233.57812 A 3.571207 3.5712071 0 0 1 465.39844 233.92383 A 3.571207 3.5712071 0 0 1 465.27539 234.25977 A 3.571207 3.5712071 0 0 1 465.11914 234.58203 A 3.571207 3.5712071 0 0 1 464.93359 234.88477 A 3.571207 3.5712071 0 0 1 464.71484 235.16992 A 3.571207 3.5712071 0 0 1 464.47266 235.43164 A 3.571207 3.5712071 0 0 1 464.20312 235.66602 A 3.571207 3.5712071 0 0 1 463.91406 235.875 A 3.571207 3.5712071 0 0 1 463.60352 236.05078 A 3.571207 3.5712071 0 0 1 463.27734 236.19727 A 3.571207 3.5712071 0 0 1 462.93945 236.31055 A 3.571207 3.5712071 0 0 1 462.5918 236.38867 A 3.571207 3.5712071 0 0 1 462.23633 236.43164 A 3.571207 3.5712071 0 0 1 461.98438 236.43945 A 3.571207 3.5712071 0 0 1 461.62695 236.41992 A 3.571207 3.5712071 0 0 1 461.27539 236.36914 A 3.571207 3.5712071 0 0 1 460.92773 236.2793 A 3.571207 3.5712071 0 0 1 460.59375 236.15625 A 3.571207 3.5712071 0 0 1 460.27148 236.00195 A 3.571207 3.5712071 0 0 1 459.9668 235.81445 A 3.571207 3.5712071 0 0 1 459.68359 235.59766 A 3.571207 3.5712071 0 0 1 459.42188 235.35547 A 3.571207 3.5712071 0 0 1 459.1875 235.08789 A 3.571207 3.5712071 0 0 1 458.97852 234.79688 A 3.571207 3.5712071 0 0 1 458.80078 234.48633 A 3.571207 3.5712071 0 0 1 458.65625 234.16211 A 3.571207 3.5712071 0 0 1 458.54297 233.82227 A 3.571207 3.5712071 0 0 1 458.46484 233.47461 A 3.571207 3.5712071 0 0 1 458.42188 233.11914 A 3.571207 3.5712071 0 0 1 458.41016 232.86719 A 3.571207 3.5712071 0 0 1 458.42969 232.50977 A 3.571207 3.5712071 0 0 1 458.48242 232.1582 A 3.571207 3.5712071 0 0 1 458.57031 231.8125 A 3.571207 3.5712071 0 0 1 458.69336 231.47656 A 3.571207 3.5712071 0 0 1 458.84766 231.1543 A 3.571207 3.5712071 0 0 1 459.03516 230.85156 A 3.571207 3.5712071 0 0 1 459.25 230.56641 A 3.571207 3.5712071 0 0 1 459.49414 230.30469 A 3.571207 3.5712071 0 0 1 459.76172 230.07031 A 3.571207 3.5712071 0 0 1 460.05273 229.86133 A 3.571207 3.5712071 0 0 1 460.36133 229.68359 A 3.571207 3.5712071 0 0 1 460.6875 229.53906 A 3.571207 3.5712071 0 0 1 461.02734 229.42578 A 3.571207 3.5712071 0 0 1 461.375 229.34766 A 3.571207 3.5712071 0 0 1 461.73047 229.30469 A 3.571207 3.5712071 0 0 1 461.98242 229.29297 z M 461.98633 422.70898 A 5.5110637 5.5110633 0 0 1 462.53711 422.73633 A 5.5110637 5.5110633 0 0 1 463.08203 422.81836 A 5.5110637 5.5110633 0 0 1 463.61523 422.95508 A 5.5110637 5.5110633 0 0 1 464.13281 423.14453 A 5.5110637 5.5110633 0 0 1 464.62891 423.38477 A 5.5110637 5.5110633 0 0 1 465.09766 423.67188 A 5.5110637 5.5110633 0 0 1 465.53711 424.00586 A 5.5110637 5.5110633 0 0 1 465.93945 424.38086 A 5.5110637 5.5110633 0 0 1 466.30469 424.79492 A 5.5110637 5.5110633 0 0 1 466.625 425.24219 A 5.5110637 5.5110633 0 0 1 466.89844 425.7207 A 5.5110637 5.5110633 0 0 1 467.12305 426.22266 A 5.5110637 5.5110633 0 0 1 467.29688 426.74609 A 5.5110637 5.5110633 0 0 1 467.41797 427.2832 A 5.5110637 5.5110633 0 0 1 467.48438 427.83008 A 5.5110637 5.5110633 0 0 1 467.49805 428.2207 A 5.5110637 5.5110633 0 0 1 467.4707 428.77148 A 5.5110637 5.5110633 0 0 1 467.38867 429.31445 A 5.5110637 5.5110633 0 0 1 467.25195 429.84961 A 5.5110637 5.5110633 0 0 1 467.0625 430.36719 A 5.5110637 5.5110633 0 0 1 466.82227 430.86328 A 5.5110637 5.5110633 0 0 1 466.53516 431.33203 A 5.5110637 5.5110633 0 0 1 466.20117 431.77148 A 5.5110637 5.5110633 0 0 1 465.82617 432.17383 A 5.5110637 5.5110633 0 0 1 465.41211 432.53711 A 5.5110637 5.5110633 0 0 1 464.96484 432.85742 A 5.5110637 5.5110633 0 0 1 464.48633 433.13281 A 5.5110637 5.5110633 0 0 1 463.98438 433.35742 A 5.5110637 5.5110633 0 0 1 463.46094 433.53125 A 5.5110637 5.5110633 0 0 1 462.92383 433.65039 A 5.5110637 5.5110633 0 0 1 462.37695 433.7168 A 5.5110637 5.5110633 0 0 1 461.98633 433.73242 A 5.5110637 5.5110633 0 0 1 461.4375 433.70312 A 5.5110637 5.5110633 0 0 1 460.89258 433.62109 A 5.5110637 5.5110633 0 0 1 460.35742 433.48438 A 5.5110637 5.5110633 0 0 1 459.83984 433.29688 A 5.5110637 5.5110633 0 0 1 459.34375 433.05664 A 5.5110637 5.5110633 0 0 1 458.875 432.76953 A 5.5110637 5.5110633 0 0 1 458.43555 432.43555 A 5.5110637 5.5110633 0 0 1 458.0332 432.06055 A 5.5110637 5.5110633 0 0 1 457.66992 431.64648 A 5.5110637 5.5110633 0 0 1 457.34961 431.19727 A 5.5110637 5.5110633 0 0 1 457.07617 430.7207 A 5.5110637 5.5110633 0 0 1 456.84961 430.2168 A 5.5110637 5.5110633 0 0 1 456.67578 429.69531 A 5.5110637 5.5110633 0 0 1 456.55664 429.15625 A 5.5110637 5.5110633 0 0 1 456.49023 428.60938 A 5.5110637 5.5110633 0 0 1 456.47656 428.2207 A 5.5110637 5.5110633 0 0 1 456.50391 427.66992 A 5.5110637 5.5110633 0 0 1 456.58594 427.125 A 5.5110637 5.5110633 0 0 1 456.72266 426.5918 A 5.5110637 5.5110633 0 0 1 456.91016 426.07422 A 5.5110637 5.5110633 0 0 1 457.15039 425.57812 A 5.5110637 5.5110633 0 0 1 457.4375 425.10938 A 5.5110637 5.5110633 0 0 1 457.77148 424.66992 A 5.5110637 5.5110633 0 0 1 458.14648 424.26758 A 5.5110637 5.5110633 0 0 1 458.56055 423.9043 A 5.5110637 5.5110633 0 0 1 459.00977 423.58203 A 5.5110637 5.5110633 0 0 1 459.48633 423.30859 A 5.5110637 5.5110633 0 0 1 459.99023 423.08398 A 5.5110637 5.5110633 0 0 1 460.51172 422.91016 A 5.5110637 5.5110633 0 0 1 461.05078 422.78906 A 5.5110637 5.5110633 0 0 1 461.59766 422.72266 A 5.5110637 5.5110633 0 0 1 461.98633 422.70898 z "
       id="path1390"
       transform="matrix(0.26458333,0,0,0.26458333,0,-7.8)" />
    <path
       inkscape:connector-curvature="0"
       style="fill:none;fill-opacity:1;stroke:#000000;stroke-width:0.17779854;stroke-opacity:1"
       d="M 35.929357,-4.9665667 V 149.8555 h 25.22171 v -9.38289 h -12.5305 v -4.54546 h 12.5305 V -4.9665667 Z m 7.57835,3.86074 h 9.75444 v 4.75475 h -9.75444 z m 5.03225,73.1009697 a 2.1995125,2.1995127 0 0 1 0.21962,0.0109 2.1995125,2.1995127 0 0 1 0.21756,0.0331 2.1995125,2.1995127 0 0 1 0.21291,0.0543 2.1995125,2.1995127 0 0 1 0.2067,0.0754 2.1995125,2.1995127 0 0 1 0.19793,0.0956 2.1995125,2.1995127 0 0 1 0.18706,0.11472 2.1995125,2.1995127 0 0 1 0.17519,0.13332 2.1995125,2.1995127 0 0 1 0.16071,0.14986 2.1995125,2.1995127 0 0 1 0.14521,0.16485 2.1995125,2.1995127 0 0 1 0.12816,0.1788 2.1995125,2.1995127 0 0 1 0.10904,0.19069 2.1995125,2.1995127 0 0 1 0.0899,0.20102 2.1995125,2.1995127 0 0 1 0.0692,0.20826 2.1995125,2.1995127 0 0 1 0.0486,0.21497 2.1995125,2.1995127 0 0 1 0.0264,0.21808 2.1995125,2.1995127 0 0 1 0.005,0.15554 2.1995125,2.1995127 0 0 1 -0.0109,0.21963 2.1995125,2.1995127 0 0 1 -0.0326,0.21755 2.1995125,2.1995127 0 0 1 -0.0548,0.21291 2.1995125,2.1995127 0 0 1 -0.0755,0.20671 2.1995125,2.1995127 0 0 1 -0.0956,0.19792 2.1995125,2.1995127 0 0 1 -0.11472,0.18707 2.1995125,2.1995127 0 0 1 -0.13281,0.17518 2.1995125,2.1995127 0 0 1 -0.14986,0.16071 2.1995125,2.1995127 0 0 1 -0.16537,0.14521 2.1995125,2.1995127 0 0 1 -0.1788,0.12816 2.1995125,2.1995127 0 0 1 -0.19069,0.10904 2.1995125,2.1995127 0 0 1 -0.20102,0.0899 2.1995125,2.1995127 0 0 1 -0.20825,0.0692 2.1995125,2.1995127 0 0 1 -0.21446,0.0481 2.1995125,2.1995127 0 0 1 -0.21859,0.0269 2.1995125,2.1995127 0 0 1 -0.15555,0.005 2.1995125,2.1995127 0 0 1 -0.21962,-0.0108 2.1995125,2.1995127 0 0 1 -0.21704,-0.0326 2.1995125,2.1995127 0 0 1 -0.21343,-0.0548 2.1995125,2.1995127 0 0 1 -0.20619,-0.0754 2.1995125,2.1995127 0 0 1 -0.19792,-0.0956 2.1995125,2.1995127 0 0 1 -0.18758,-0.11472 2.1995125,2.1995127 0 0 1 -0.17519,-0.13333 2.1995125,2.1995127 0 0 1 -0.16071,-0.14986 2.1995125,2.1995127 0 0 1 -0.14521,-0.16485 2.1995125,2.1995127 0 0 1 -0.12764,-0.1788 2.1995125,2.1995127 0 0 1 -0.10955,-0.19068 2.1995125,2.1995127 0 0 1 -0.0899,-0.20102 2.1995125,2.1995127 0 0 1 -0.0693,-0.20826 2.1995125,2.1995127 0 0 1 -0.0481,-0.21497 2.1995125,2.1995127 0 0 1 -0.0269,-0.21808 2.1995125,2.1995127 0 0 1 -0.005,-0.15555 2.1995125,2.1995127 0 0 1 0.0109,-0.21962 2.1995125,2.1995127 0 0 1 0.0331,-0.21756 2.1995125,2.1995127 0 0 1 0.0543,-0.2129 2.1995125,2.1995127 0 0 1 0.0754,-0.20619 2.1995125,2.1995127 0 0 1 0.0956,-0.19844 2.1995125,2.1995127 0 0 1 0.11472,-0.18707 2.1995125,2.1995127 0 0 1 0.13332,-0.17518 2.1995125,2.1995127 0 0 1 0.14986,-0.16072 2.1995125,2.1995127 0 0 1 0.16485,-0.14521 2.1995125,2.1995127 0 0 1 0.1788,-0.12815 2.1995125,2.1995127 0 0 1 0.19069,-0.10904 2.1995125,2.1995127 0 0 1 0.20102,-0.0899 2.1995125,2.1995127 0 0 1 0.20877,-0.0692 2.1995125,2.1995127 0 0 1 0.21446,-0.0481 2.1995125,2.1995127 0 0 1 0.21807,-0.0269 2.1995125,2.1995127 0 0 1 0.15555,-0.005 z"
       id="rect1366-7" />
    <path
       style="fill:none;fill-opacity:1;stroke:#000000;stroke-width:1.02950883;stroke-opacity:1"
       d="M 508.02539 485.08594 A 45.634778 45.634774 0 0 0 504.79688 485.20117 A 45.634778 45.634774 0 0 0 500.26953 485.75 A 45.634778 45.634774 0 0 0 495.81836 486.75 A 45.634778 45.634774 0 0 0 491.48828 488.1875 A 45.634778 45.634774 0 0 0 487.32617 490.05078 A 45.634778 45.634774 0 0 0 483.36914 492.32031 A 45.634778 45.634774 0 0 0 479.6582 494.97461 A 45.634778 45.634774 0 0 0 476.23047 497.98438 A 45.634778 45.634774 0 0 0 473.12109 501.32227 A 45.634778 45.634774 0 0 0 470.36133 504.95312 A 45.634778 45.634774 0 0 0 467.97656 508.8418 A 45.634778 45.634774 0 0 0 465.99219 512.95117 A 45.634778 45.634774 0 0 0 464.42773 517.23438 A 45.634778 45.634774 0 0 0 463.30078 521.6543 A 45.634778 45.634774 0 0 0 462.61914 526.16602 A 45.634778 45.634774 0 0 0 462.39062 530.7207 A 45.634778 45.634774 0 0 0 462.50391 533.94922 A 45.634778 45.634774 0 0 0 463.05469 538.47852 A 45.634778 45.634774 0 0 0 464.05273 542.92773 A 45.634778 45.634774 0 0 0 465.49219 547.25781 A 45.634778 45.634774 0 0 0 467.35547 551.42188 A 45.634778 45.634774 0 0 0 469.625 555.37695 A 45.634778 45.634774 0 0 0 472.27734 559.08789 A 45.634778 45.634774 0 0 0 475.28906 562.51562 A 45.634778 45.634774 0 0 0 478.62695 565.625 A 45.634778 45.634774 0 0 0 482.25781 568.38477 A 45.634778 45.634774 0 0 0 486.14648 570.76953 A 45.634778 45.634774 0 0 0 490.25391 572.75391 A 45.634778 45.634774 0 0 0 494.53906 574.31836 A 45.634778 45.634774 0 0 0 498.95898 575.44727 A 45.634778 45.634774 0 0 0 503.46875 576.12891 A 45.634778 45.634774 0 0 0 508.02539 576.35547 A 45.634778 45.634774 0 0 0 511.25391 576.24219 A 45.634778 45.634774 0 0 0 515.78125 575.69141 A 45.634778 45.634774 0 0 0 520.23242 574.69336 A 45.634778 45.634774 0 0 0 524.56055 573.25391 A 45.634778 45.634774 0 0 0 528.72461 571.39062 A 45.634778 45.634774 0 0 0 532.68164 569.12109 A 45.634778 45.634774 0 0 0 536.39258 566.46875 A 45.634778 45.634774 0 0 0 539.81836 563.45703 A 45.634778 45.634774 0 0 0 542.92773 560.11914 A 45.634778 45.634774 0 0 0 545.68945 556.48828 A 45.634778 45.634774 0 0 0 548.07422 552.59961 A 45.634778 45.634774 0 0 0 550.05664 548.49219 A 45.634778 45.634774 0 0 0 551.62109 544.20703 A 45.634778 45.634774 0 0 0 552.75 539.78711 A 45.634778 45.634774 0 0 0 553.43164 535.27734 A 45.634778 45.634774 0 0 0 553.66016 530.7207 A 45.634778 45.634774 0 0 0 553.54492 527.49414 A 45.634778 45.634774 0 0 0 552.99609 522.96484 A 45.634778 45.634774 0 0 0 551.99609 518.51367 A 45.634778 45.634774 0 0 0 550.55859 514.18555 A 45.634778 45.634774 0 0 0 548.69531 510.02148 A 45.634778 45.634774 0 0 0 546.42578 506.06445 A 45.634778 45.634774 0 0 0 543.77148 502.35352 A 45.634778 45.634774 0 0 0 540.76172 498.92773 A 45.634778 45.634774 0 0 0 537.42383 495.81836 A 45.634778 45.634774 0 0 0 533.79297 493.05664 A 45.634778 45.634774 0 0 0 529.9043 490.67383 A 45.634778 45.634774 0 0 0 525.79688 488.68945 A 45.634778 45.634774 0 0 0 521.51172 487.125 A 45.634778 45.634774 0 0 0 517.0918 485.99609 A 45.634778 45.634774 0 0 0 512.58008 485.31445 A 45.634778 45.634774 0 0 0 508.02539 485.08594 z "
       id="path1492"
       transform="matrix(0.26458333,0,0,0.26458333,0,-7.8)" />
    <path
       style="fill:none;fill-opacity:1;stroke:#000000;stroke-width:1.02950883;stroke-opacity:1"
       d="M 273.97266 512.10156 L 273.97266 549.3418 L 292.31445 549.3418 L 292.31445 512.10156 L 273.97266 512.10156 z "
       id="path1513"
       transform="matrix(0.26458333,0,0,0.26458333,0,-7.8)" />
    <path
       style="fill:none;fill-opacity:1;stroke:#000000;stroke-width:1.02950883;stroke-opacity:1"
       d="M 723.73633 512.10156 L 723.73633 549.3418 L 742.07812 549.3418 L 742.07812 512.10156 L 723.73633 512.10156 z "
       id="path1516"
       transform="matrix(0.26458333,0,0,0.26458333,0,-7.8)" />
    <path
       style="fill:none;fill-opacity:1;stroke:#000000;stroke-width:1.02950883;stroke-opacity:1"
       d="M 262.87109 479.45508 L 262.87109 581.98438 L 753.18164 581.98438 L 753.18164 479.45508 L 262.87109 479.45508 z M 508.02539 485.08594 A 45.634776 45.634772 0 0 1 512.58008 485.31445 A 45.634776 45.634772 0 0 1 517.0918 485.99609 A 45.634776 45.634772 0 0 1 521.51172 487.125 A 45.634776 45.634772 0 0 1 525.79688 488.68945 A 45.634776 45.634772 0 0 1 529.9043 490.67383 A 45.634776 45.634772 0 0 1 533.79297 493.05664 A 45.634776 45.634772 0 0 1 537.42383 495.81836 A 45.634776 45.634772 0 0 1 540.76172 498.92773 A 45.634776 45.634772 0 0 1 543.77148 502.35352 A 45.634776 45.634772 0 0 1 546.42578 506.06445 A 45.634776 45.634772 0 0 1 548.69531 510.02148 A 45.634776 45.634772 0 0 1 550.55859 514.18555 A 45.634776 45.634772 0 0 1 551.99609 518.51367 A 45.634776 45.634772 0 0 1 552.99609 522.96484 A 45.634776 45.634772 0 0 1 553.54492 527.49414 A 45.634776 45.634772 0 0 1 553.66016 530.7207 A 45.634776 45.634772 0 0 1 553.43164 535.27734 A 45.634776 45.634772 0 0 1 552.75 539.78711 A 45.634776 45.634772 0 0 1 551.62109 544.20703 A 45.634776 45.634772 0 0 1 550.05664 548.49219 A 45.634776 45.634772 0 0 1 548.07422 552.59961 A 45.634776 45.634772 0 0 1 545.68945 556.48828 A 45.634776 45.634772 0 0 1 542.92773 560.11914 A 45.634776 45.634772 0 0 1 539.81836 563.45703 A 45.634776 45.634772 0 0 1 536.39258 566.46875 A 45.634776 45.634772 0 0 1 532.68164 569.12109 A 45.634776 45.634772 0 0 1 528.72461 571.39062 A 45.634776 45.634772 0 0 1 524.56055 573.25391 A 45.634776 45.634772 0 0 1 520.23242 574.69336 A 45.634776 45.634772 0 0 1 515.78125 575.69141 A 45.634776 45.634772 0 0 1 511.25391 576.24219 A 45.634776 45.634772 0 0 1 508.02539 576.35547 A 45.634776 45.634772 0 0 1 503.46875 576.12891 A 45.634776 45.634772 0 0 1 498.95898 575.44727 A 45.634776 45.634772 0 0 1 494.53906 574.31836 A 45.634776 45.634772 0 0 1 490.25391 572.75391 A 45.634776 45.634772 0 0 1 486.14648 570.76953 A 45.634776 45.634772 0 0 1 482.25781 568.38477 A 45.634776 45.634772 0 0 1 478.62695 565.625 A 45.634776 45.634772 0 0 1 475.28906 562.51562 A 45.634776 45.634772 0 0 1 472.27734 559.08789 A 45.634776 45.634772 0 0 1 469.625 555.37695 A 45.634776 45.634772 0 0 1 467.35547 551.42188 A 45.634776 45.634772 0 0 1 465.49219 547.25781 A 45.634776 45.634772 0 0 1 464.05273 542.92773 A 45.634776 45.634772 0 0 1 463.05469 538.47852 A 45.634776 45.634772 0 0 1 462.50391 533.94922 A 45.634776 45.634772 0 0 1 462.39062 530.7207 A 45.634776 45.634772 0 0 1 462.61914 526.16602 A 45.634776 45.634772 0 0 1 463.30078 521.6543 A 45.634776 45.634772 0 0 1 464.42773 517.23438 A 45.634776 45.634772 0 0 1 465.99219 512.95117 A 45.634776 45.634772 0 0 1 467.97656 508.8418 A 45.634776 45.634772 0 0 1 470.36133 504.95312 A 45.634776 45.634772 0 0 1 473.12109 501.32227 A 45.634776 45.634772 0 0 1 476.23047 497.98438 A 45.634776 45.634772 0 0 1 479.6582 494.97461 A 45.634776 45.634772 0 0 1 483.36914 492.32031 A 45.634776 45.634772 0 0 1 487.32617 490.05078 A 45.634776 45.634772 0 0 1 491.48828 488.1875 A 45.634776 45.634772 0 0 1 495.81836 486.75 A 45.634776 45.634772 0 0 1 500.26953 485.75 A 45.634776 45.634772 0 0 1 504.79688 485.20117 A 45.634776 45.634772 0 0 1 508.02539 485.08594 z M 273.97266 512.10156 L 292.31445 512.10156 L 292.31445 549.3418 L 273.97266 549.3418 L 273.97266 512.10156 z M 723.73633 512.10156 L 742.07812 512.10156 L 742.07812 549.3418 L 723.73633 549.3418 L 723.73633 512.10156 z "
       id="rect1460"
       transform="matrix(0.26458333,0,0,0.26458333,0,-7.8)" />
    <ellipse
       style="fill:none;fill-opacity:1;stroke:#000000;stroke-width:0.25159714;stroke-opacity:1"
       id="path1462-3"
       cx="216.53214"
       cy="130.52054"
       rx="12.074202"
       ry="12.074201" />
    <circle
       style="fill:none;fill-opacity:1;stroke:#000000;stroke-width:0.30934078;stroke-opacity:1"
       id="path1462-6"
       cx="216.58319"
       cy="130.49242"
       r="14.845329" />
    <path
       inkscape:connector-curvature="0"
       style="fill:none;fill-opacity:1;stroke:#000000;stroke-width:0.33439556;stroke-opacity:1"
       d="M 244.23362,-4.5960281 A 59.832801,59.832801 0 0 0 184.40058,55.237011 59.832801,59.832801 0 0 0 244.23362,115.06954 59.832801,59.832801 0 0 0 304.06614,55.237011 59.832801,59.832801 0 0 0 244.23362,-4.5960281 Z m 0,5.06118983 a 1.4581356,1.4581355 0 0 1 0.14573,0.00723 1.4581356,1.4581355 0 0 1 0.14417,0.021704 1.4581356,1.4581355 0 0 1 0.14108,0.036174 1.4581356,1.4581355 0 0 1 0.13694,0.050126 1.4581356,1.4581355 0 0 1 0.13126,0.063045 1.4581356,1.4581355 0 0 1 0.12402,0.076481 1.4581356,1.4581355 0 0 1 0.11628,0.08785 1.4581356,1.4581355 0 0 1 0.10645,0.099735 1.4581356,1.4581355 0 0 1 0.0966,0.10903717 1.4581356,1.4581355 0 0 1 0.0847,0.1188559 1.4581356,1.4581355 0 0 1 0.0724,0.1266073 1.4581356,1.4581355 0 0 1 0.0594,0.1328084 1.4581356,1.4581355 0 0 1 0.046,0.1384927 1.4581356,1.4581355 0 0 1 0.032,0.1421104 1.4581356,1.4581355 0 0 1 0.0176,0.144694 1.4581356,1.4581355 0 0 1 0.004,0.1028361 1.4581356,1.4581355 0 0 1 -0.007,0.1457275 1.4581356,1.4581355 0 0 1 -0.0217,0.1441773 1.4581356,1.4581355 0 0 1 -0.0362,0.1410766 1.4581356,1.4581355 0 0 1 -0.0501,0.1369425 1.4581356,1.4581355 0 0 1 -0.0636,0.1312582 1.4581356,1.4581355 0 0 1 -0.076,0.1245402 1.4581356,1.4581355 0 0 1 -0.0884,0.1157552 1.4581356,1.4581355 0 0 1 -0.0992,0.1069703 1.4581356,1.4581355 0 0 1 -0.10956,0.096118 1.4581356,1.4581355 0 0 1 -0.11834,0.084749 1.4581356,1.4581355 0 0 1 -0.1266,0.072347 1.4581356,1.4581355 0 0 1 -0.13281,0.059428 1.4581356,1.4581355 0 0 1 -0.13849,0.045992 1.4581356,1.4581355 0 0 1 -0.14211,0.032039 1.4581356,1.4581355 0 0 1 -0.1447,0.017571 1.4581356,1.4581355 0 0 1 -0.10335,0.00362 1.4581356,1.4581355 0 0 1 -0.14521,-0.00723 1.4581356,1.4581355 0 0 1 -0.14418,-0.021704 1.4581356,1.4581355 0 0 1 -0.14159,-0.036173 1.4581356,1.4581355 0 0 1 -0.13695,-0.050126 1.4581356,1.4581355 0 0 1 -0.13125,-0.063045 1.4581356,1.4581355 0 0 1 -0.12403,-0.076481 1.4581356,1.4581355 0 0 1 -0.11627,-0.08785 1.4581356,1.4581355 0 0 1 -0.10645,-0.099736 1.4581356,1.4581355 0 0 1 -0.0961,-0.1095539 1.4581356,1.4581355 0 0 1 -0.0848,-0.1183392 1.4581356,1.4581355 0 0 1 -0.0723,-0.126607 1.4581356,1.4581355 0 0 1 -0.0599,-0.1328084 1.4581356,1.4581355 0 0 1 -0.046,-0.138493 1.4581356,1.4581355 0 0 1 -0.0315,-0.1421101 1.4581356,1.4581355 0 0 1 -0.0176,-0.1446941 1.4581356,1.4581355 0 0 1 -0.004,-0.1033528 1.4581356,1.4581355 0 0 1 0.007,-0.145211 1.4581356,1.4581355 0 0 1 0.0217,-0.144177 1.4581356,1.4581355 0 0 1 0.0362,-0.1410767 1.4581356,1.4581355 0 0 1 0.0496,-0.1369427 1.4581356,1.4581355 0 0 1 0.0636,-0.131258 1.4581356,1.4581355 0 0 1 0.076,-0.1245404 1.4581356,1.4581355 0 0 1 0.0884,-0.11575517 1.4581356,1.4581355 0 0 1 0.0992,-0.10697 1.4581356,1.4581355 0 0 1 0.10955,-0.096118 1.4581356,1.4581355 0 0 1 0.11886,-0.084749 1.4581356,1.4581355 0 0 1 0.12609,-0.072347 1.4581356,1.4581355 0 0 1 0.13332,-0.059428 1.4581356,1.4581355 0 0 1 0.13798,-0.045992 1.4581356,1.4581355 0 0 1 0.14263,-0.032039 1.4581356,1.4581355 0 0 1 0.14469,-0.017571 1.4581356,1.4581355 0 0 1 0.10284,-0.00362 z m -0.001,53.82513827 0.001,0.0011 a 0.94488185,0.94488188 0 0 1 0.094,0.0052 0.94488185,0.94488188 0 0 1 0.0935,0.01394 0.94488185,0.94488188 0 0 1 0.0915,0.02326 0.94488185,0.94488188 0 0 1 0.0889,0.03256 0.94488185,0.94488188 0 0 1 0.0847,0.04083 0.94488185,0.94488188 0 0 1 0.0806,0.04961 0.94488185,0.94488188 0 0 1 0.0754,0.05684 0.94488185,0.94488188 0 0 1 0.0687,0.06459 0.94488185,0.94488188 0 0 1 0.0625,0.0708 0.94488185,0.94488188 0 0 1 0.0548,0.077 0.94488185,0.94488188 0 0 1 0.047,0.08217 0.94488185,0.94488188 0 0 1 0.0388,0.08578 0.94488185,0.94488188 0 0 1 0.03,0.08992 0.94488185,0.94488188 0 0 1 0.0207,0.09199 0.94488185,0.94488188 0 0 1 0.0114,0.09405 0.94488185,0.94488188 0 0 1 0.002,0.06666 0.94488185,0.94488188 0 0 1 -0.005,0.09405 0.94488185,0.94488188 0 0 1 -0.0139,0.09353 0.94488185,0.94488188 0 0 1 -0.0233,0.09147 0.94488185,0.94488188 0 0 1 -0.0326,0.08888 0.94488185,0.94488188 0 0 1 -0.0413,0.08526 0.94488185,0.94488188 0 0 1 -0.0491,0.0801 0.94488185,0.94488188 0 0 1 -0.0579,0.07545 0.94488185,0.94488188 0 0 1 -0.0641,0.06925 0.94488185,0.94488188 0 0 1 -0.0713,0.06201 0.94488185,0.94488188 0 0 1 -0.0765,0.05529 0.94488185,0.94488188 0 0 1 -0.0822,0.04651 0.94488185,0.94488188 0 0 1 -0.0863,0.03876 0.94488185,0.94488188 0 0 1 -0.0894,0.02997 0.94488185,0.94488188 0 0 1 -0.092,0.02066 0.94488185,0.94488188 0 0 1 -0.0941,0.01138 0.94488185,0.94488188 0 0 1 -0.0667,0.0021 0.94488185,0.94488188 0 0 1 -0.0946,-0.0052 0.94488185,0.94488188 0 0 1 -0.093,-0.01344 0.94488185,0.94488188 0 0 1 -0.092,-0.02376 0.94488185,0.94488188 0 0 1 -0.0884,-0.03256 0.94488185,0.94488188 0 0 1 -0.0853,-0.04083 0.94488185,0.94488188 0 0 1 -0.0806,-0.04961 0.94488185,0.94488188 0 0 1 -0.0749,-0.05736 0.94488185,0.94488188 0 0 1 -0.0692,-0.06408 0.94488185,0.94488188 0 0 1 -0.062,-0.0708 0.94488185,0.94488188 0 0 1 -0.0553,-0.077 0.94488185,0.94488188 0 0 1 -0.047,-0.08217 0.94488185,0.94488188 0 0 1 -0.0382,-0.08578 0.94488185,0.94488188 0 0 1 -0.03,-0.08992 0.94488185,0.94488188 0 0 1 -0.0207,-0.09199 0.94488185,0.94488188 0 0 1 -0.0114,-0.09405 0.94488185,0.94488188 0 0 1 -0.003,-0.06666 0.94488185,0.94488188 0 0 1 0.005,-0.09457 0.94488185,0.94488188 0 0 1 0.0139,-0.09302 0.94488185,0.94488188 0 0 1 0.0233,-0.09147 0.94488185,0.94488188 0 0 1 0.0326,-0.08888 0.94488185,0.94488188 0 0 1 0.0408,-0.08526 0.94488185,0.94488188 0 0 1 0.0496,-0.0801 0.94488185,0.94488188 0 0 1 0.0568,-0.07545 0.94488185,0.94488188 0 0 1 0.0646,-0.06925 0.94488185,0.94488188 0 0 1 0.0708,-0.06201 0.94488185,0.94488188 0 0 1 0.077,-0.05529 0.94488185,0.94488188 0 0 1 0.0816,-0.04703 0.94488185,0.94488188 0 0 1 0.0863,-0.03824 0.94488185,0.94488188 0 0 1 0.0899,-0.02997 0.94488185,0.94488188 0 0 1 0.092,-0.02066 0.94488185,0.94488188 0 0 1 0.094,-0.01138 0.94488185,0.94488188 0 0 1 0.0667,-0.0031 z m 0.001,51.17466 a 1.4581356,1.4581355 0 0 1 0.14573,0.007 1.4581356,1.4581355 0 0 1 0.14417,0.0217 1.4581356,1.4581355 0 0 1 0.14108,0.0362 1.4581356,1.4581355 0 0 1 0.13694,0.0501 1.4581356,1.4581355 0 0 1 0.13126,0.0636 1.4581356,1.4581355 0 0 1 0.12402,0.076 1.4581356,1.4581355 0 0 1 0.11628,0.0884 1.4581356,1.4581355 0 0 1 0.10645,0.0992 1.4581356,1.4581355 0 0 1 0.0966,0.10955 1.4581356,1.4581355 0 0 1 0.0847,0.11834 1.4581356,1.4581355 0 0 1 0.0724,0.12661 1.4581356,1.4581355 0 0 1 0.0594,0.13281 1.4581356,1.4581355 0 0 1 0.046,0.13849 1.4581356,1.4581355 0 0 1 0.032,0.14211 1.4581356,1.4581355 0 0 1 0.0176,0.14469 1.4581356,1.4581355 0 0 1 0.004,0.10335 1.4581356,1.4581355 0 0 1 -0.007,0.14573 1.4581356,1.4581355 0 0 1 -0.0217,0.14366 1.4581356,1.4581355 0 0 1 -0.0362,0.1416 1.4581356,1.4581355 0 0 1 -0.0501,0.13694 1.4581356,1.4581355 0 0 1 -0.0636,0.13126 1.4581356,1.4581355 0 0 1 -0.076,0.12402 1.4581356,1.4581355 0 0 1 -0.0884,0.11627 1.4581356,1.4581355 0 0 1 -0.0992,0.10646 1.4581356,1.4581355 0 0 1 -0.10956,0.0961 1.4581356,1.4581355 0 0 1 -0.11834,0.0847 1.4581356,1.4581355 0 0 1 -0.1266,0.0729 1.4581356,1.4581355 0 0 1 -0.13281,0.0594 1.4581356,1.4581355 0 0 1 -0.13849,0.046 1.4581356,1.4581355 0 0 1 -0.14211,0.0315 1.4581356,1.4581355 0 0 1 -0.1447,0.0176 1.4581356,1.4581355 0 0 1 -0.10335,0.004 1.4581356,1.4581355 0 0 1 -0.14521,-0.008 1.4581356,1.4581355 0 0 1 -0.14418,-0.0217 1.4581356,1.4581355 0 0 1 -0.14159,-0.0362 1.4581356,1.4581355 0 0 1 -0.13695,-0.0496 1.4581356,1.4581355 0 0 1 -0.13125,-0.0636 1.4581356,1.4581355 0 0 1 -0.12403,-0.076 1.4581356,1.4581355 0 0 1 -0.11627,-0.0884 1.4581356,1.4581355 0 0 1 -0.10645,-0.0992 1.4581356,1.4581355 0 0 1 -0.0961,-0.10955 1.4581356,1.4581355 0 0 1 -0.0848,-0.11886 1.4581356,1.4581355 0 0 1 -0.0723,-0.12609 1.4581356,1.4581355 0 0 1 -0.0599,-0.13332 1.4581356,1.4581355 0 0 1 -0.046,-0.13798 1.4581356,1.4581355 0 0 1 -0.0315,-0.14263 1.4581356,1.4581355 0 0 1 -0.0176,-0.14469 1.4581356,1.4581355 0 0 1 -0.004,-0.10284 1.4581356,1.4581355 0 0 1 0.007,-0.14572 1.4581356,1.4581355 0 0 1 0.0217,-0.14418 1.4581356,1.4581355 0 0 1 0.0362,-0.14108 1.4581356,1.4581355 0 0 1 0.0496,-0.13694 1.4581356,1.4581355 0 0 1 0.0636,-0.13126 1.4581356,1.4581355 0 0 1 0.076,-0.12402 1.4581356,1.4581355 0 0 1 0.0884,-0.11627 1.4581356,1.4581355 0 0 1 0.0992,-0.10646 1.4581356,1.4581355 0 0 1 0.10955,-0.0961 1.4581356,1.4581355 0 0 1 0.11886,-0.0853 1.4581356,1.4581355 0 0 1 0.12609,-0.0724 1.4581356,1.4581355 0 0 1 0.13332,-0.0594 1.4581356,1.4581355 0 0 1 0.13798,-0.046 1.4581356,1.4581355 0 0 1 0.14263,-0.032 1.4581356,1.4581355 0 0 1 0.14469,-0.0176 1.4581356,1.4581355 0 0 1 0.10284,-0.004 z"
       id="path1390-1" />
    <path
       style="fill:none;fill-opacity:1;stroke:#000000;stroke-width:0.12885895;stroke-opacity:1"
       d="m 244.98431,123.5093 c -2.58681,0 -4.66907,1.45594 -4.66907,3.26462 v 10.12073 h -4.53269 v 6.53679 h 18.84159 v -6.53679 h -4.97027 v -10.12073 c 0,-0.97743 -0.60826,-1.85185 -1.57562,-2.44914 -0.82268,-0.50795 -1.90508,-0.81548 -3.09394,-0.81548 z"
       id="rect1556"
       inkscape:connector-curvature="0"
       sodipodi:nodetypes="sscccccccss" />
    <ellipse
       style="fill:none;fill-opacity:1;stroke:#000000;stroke-width:0.30016643;stroke-opacity:1"
       id="path1562"
       cx="245.16122"
       cy="127.70139"
       rx="2.0999167"
       ry="2.0999169" />
    <path
       style="fill:none;fill-opacity:1;stroke:#000000;stroke-width:0.12885895;stroke-opacity:1"
       d="m 266.13636,123.55958 c -2.58681,0 -4.66907,1.45594 -4.66907,3.26462 v 10.12073 h -4.5327 v 6.53679 h 18.84159 v -6.53679 h -4.97026 V 126.8242 c 0,-0.97743 -0.60826,-1.85185 -1.57562,-2.44914 -0.82268,-0.50795 -1.90508,-0.81548 -3.09394,-0.81548 z"
       id="rect1556-2"
       inkscape:connector-curvature="0"
       sodipodi:nodetypes="sscccccccss" />
    <ellipse
       style="fill:none;fill-opacity:1;stroke:#000000;stroke-width:0.30016643;stroke-opacity:1"
       id="path1562-7"
       cx="266.31326"
       cy="127.75167"
       rx="2.0999167"
       ry="2.0999169" />
    <path
       style="fill:none;fill-opacity:1;stroke:#000000;stroke-width:0.27044699;stroke-opacity:1"
       d="m 21.729717,213.04753 v 21.64622 h 40.145868 v -21.64622 z"
       id="path1600"
       inkscape:connector-curvature="0" />
    <circle
       style="fill:none;fill-opacity:1;stroke:#000000;stroke-width:0.20486194;stroke-opacity:1"
       id="path1633"
       cx="66.671463"
       cy="229.48869"
       r="1.8975691" />
    <circle
       style="fill:none;fill-opacity:1;stroke:#000000;stroke-width:0.20486194;stroke-opacity:1"
       id="path1633-9"
       cx="17.670973"
       cy="229.48914"
       r="1.8975691" />
    <circle
       style="fill:none;fill-opacity:1;stroke:#000000;stroke-width:0.20486194;stroke-opacity:1"
       id="path1633-3"
       cx="66.671463"
       cy="217.48869"
       r="1.8975691" />
    <circle
       style="fill:none;fill-opacity:1;stroke:#000000;stroke-width:0.20486194;stroke-opacity:1"
       id="path1633-9-6"
       cx="17.671465"
       cy="217.48869"
       r="1.8975691" />
    <path
       id="rect1730"
       style="fill:none;fill-opacity:1;stroke:#000000;stroke-width:0.21413285;stroke-opacity:1"
       d="m 96.132786,193.0525 v -4.78587 h 9.785874 v 4.78587 z m -0.005,-35.51082 v -4.79492 h 9.794924 v 4.79492 z m -6.042184,21.12594 v -11.74453 h 22.344538 v 11.74453 z m -3.60501,17.12155 v -45.98763 h 29.554578 v 45.98763 z"
       inkscape:connector-curvature="0" />
    <path
       id="rect1737-6"
       style="fill:none;fill-opacity:1;stroke:#000000;stroke-width:0.26366755;stroke-opacity:1"
       d="m 37.260673,203.66983 h 9.736332 v 4.73633 h -9.736332 z m 0,35.45953 h 9.736332 v 4.73634 h -9.736332 z m 83.658407,-87.95333 v 5.02037 h 12.44731 v 4.72633 h -12.44731 v 37.97752 H 26.779093 c -13.596958,0 -24.5432053,10.94625 -24.5432053,24.54321 v 0.64337 c 0,13.59696 10.9462473,24.5432 24.5432053,24.5432 h 94.139987 v 38.56614 h 12.44731 v 4.7263 h -12.44731 v 5.02142 h 25.16798 v -48.31386 h 21.92579 v 9.29298 h 59.78963 v -0.006 h 70.93056 v -21.64156 h -65.81201 v -24.583 h 66.07038 v -23.54429 h -71.18893 v -0.0145 h -59.78963 v 10.76678 h -21.92579 v -47.72441 z m -99.189292,61.87168 h 40.145868 v 21.64622 H 21.729788 Z"
       inkscape:connector-curvature="0" />
    <path
       style="fill:none;fill-opacity:1;stroke:#000000;stroke-width:0.33659169;stroke-opacity:1"
       d="m 30.386107,160.25661 v 2.80138 h -6.910689 v 9.66349 h 6.910689 v 2.3766 h 4.841565 v -2.3766 h 37.989412 v 2.3766 h 4.841047 v -2.3766 h 6.080765 v -9.66349 h -6.080765 v -2.80138 h -4.841047 v 2.80138 H 35.227672 v -2.80138 z"
       id="rect1757"
       inkscape:connector-curvature="0" />
    <path
       inkscape:connector-curvature="0"
       style="fill:none;fill-opacity:1;stroke:#000000;stroke-width:0.33659169;stroke-opacity:1"
       d="m 17.314944,179.47034 v 2.80138 h -6.910689 v 9.6635 h 6.910689 v 2.3766 h 4.841565 v -2.3766 h 37.989413 v 2.3766 h 4.841047 v -2.3766 h 6.080765 v -9.6635 h -6.080765 v -2.80138 h -4.841047 v 2.80138 H 22.156509 v -2.80138 z"
       id="rect1757-6" />
    <path
       style="fill:none;fill-opacity:1;stroke:#000000;stroke-width:0.36230737;stroke-opacity:1"
       d="m 157.63916,149.77367 v 7.55199 h -10.02109 v 9.75289 h 10.02109 v 7.73286 h 135.63771 v -7.71942 h 9.69553 v -9.77977 h -9.69553 v -7.53855 z"
       id="rect1795"
       inkscape:connector-curvature="0" />
  </g>
</svg>
